<?xml version="1.0" standalone="no"?><!DOCTYPE svg PUBLIC "-//W3C//DTD SVG 1.1//EN" "http://www.w3.org/Graphics/SVG/1.1/DTD/svg11.dtd"><svg t="1543290940664" class="icon" style="" viewBox="0 0 1024 1024" version="1.1" xmlns="http://www.w3.org/2000/svg" p-id="19504" xmlns:xlink="http://www.w3.org/1999/xlink" width="32" height="32"><defs><style type="text/css"></style></defs><path d="M768 96H256c-88.2 0-160 71.8-160 160v512c0 88.2 71.8 160 160 160h512c88.2 0 160-71.8 160-160V256c0-88.2-71.8-160-160-160z m96 672c0 25.5-10 49.6-28.2 67.8C817.6 854 793.5 864 768 864H256c-25.5 0-49.6-10-67.8-28.2C170 817.6 160 793.5 160 768V256c0-25.5 10-49.6 28.2-67.8S230.5 160 256 160h512c25.5 0 49.6 10 67.8 28.2C854 206.4 864 230.5 864 256v512z" p-id="19505" fill="#FF6A01"></path><path d="M704 384H398.5l39.9-39.1c12.6-12.4 12.8-32.6 0.5-45.3-12.4-12.6-32.6-12.8-45.3-0.5l-95.9 94c-9.3 9.1-12.1 22.9-7.2 35s16.6 19.9 29.6 19.9H704c17.7 0 32-14.3 32-32s-14.3-32-32-32zM703.9 576H320c-17.7 0-32 14.3-32 32s14.3 32 32 32h305.7l-39.9 39.2c-12.6 12.4-12.8 32.6-0.4 45.3 6.3 6.4 14.5 9.6 22.8 9.6 8.1 0 16.2-3.1 22.4-9.2l95.7-94c9.3-9.1 12.1-22.9 7.2-34.9s-16.6-20-29.6-20z" p-id="19506" fill="#FF6A01"></path></svg>