<?xml version="1.0" standalone="no"?><!DOCTYPE svg PUBLIC "-//W3C//DTD SVG 1.1//EN" "http://www.w3.org/Graphics/SVG/1.1/DTD/svg11.dtd"><svg t="1543290794299" class="icon" style="" viewBox="0 0 1024 1024" version="1.1" xmlns="http://www.w3.org/2000/svg" p-id="15885" xmlns:xlink="http://www.w3.org/1999/xlink" width="32" height="32"><defs><style type="text/css"></style></defs><path d="M936.96 952.32H87.04c-10.24 0-20.48-10.24-20.48-20.48V337.92c0-10.24 10.24-20.48 20.48-20.48h844.8c10.24 0 20.48 10.24 20.48 20.48v599.04c5.12 10.24-5.12 15.36-15.36 15.36z m-829.44-40.96h803.84V358.4H107.52v552.96z" p-id="15886" fill="#FF6A01"></path><path d="M1003.52 358.4H20.48C10.24 358.4 0 348.16 0 337.92V112.64c0-15.36 10.24-20.48 20.48-20.48h983.04c10.24 0 20.48 5.12 20.48 20.48v225.28c0 10.24-10.24 20.48-20.48 20.48zM40.96 317.44h942.08V133.12H40.96v184.32zM599.04 578.56H424.96c-35.84 0-66.56-30.72-66.56-66.56v-40.96c0-5.12 5.12-10.24 10.24-10.24h286.72c5.12 0 10.24 5.12 10.24 10.24v40.96c0 35.84-30.72 66.56-66.56 66.56z m-204.8-87.04v20.48c0 25.6 25.6 30.72 51.2 30.72h133.12c25.6 0 51.2-5.12 51.2-30.72v-20.48H394.24z" p-id="15887" fill="#FF6A01"></path></svg>