<?xml version="1.0" standalone="no"?><!DOCTYPE svg PUBLIC "-//W3C//DTD SVG 1.1//EN" "http://www.w3.org/Graphics/SVG/1.1/DTD/svg11.dtd"><svg t="1543289547002" class="icon" style="" viewBox="0 0 1024 1024" version="1.1" xmlns="http://www.w3.org/2000/svg" p-id="3018" xmlns:xlink="http://www.w3.org/1999/xlink" width="32" height="32"><defs><style type="text/css"></style></defs><path d="M734.9 325.8c-159.7 0-289.2 129.5-289.2 289.2s129.5 289.2 289.2 289.2S1024.1 774.7 1024.1 615c0.1-159.7-129.4-289.2-289.2-289.2z m111.5 354.7c7.2 0 13.1 6.3 13.1 13.5s-5.9 13.5-13.1 13.5H743.5v94.3c0 7.2-6.3 13.1-13.5 13.1s-13.5-5.9-13.5-13.1V703h-95.2c-7.2 0-13.1-6.3-13.1-13.5S614.1 676 621.3 676h95.2v-58.7h-95.2c-7.2 0-13.1-8.6-13.1-15.8 0-7.2 5.9-15.8 13.1-15.8h91.1l-83.5-153.9c-3.2-7.2-1.4-13.5 5.4-16.7 7.2-3.2 14.9-0.4 18 5.9l82.6 155.7 82.1-154.8c3.2-6.3 11.7-8.6 18-5 6.3 3.2 8.6 10.8 5.4 17.1l-83.5 156.1h91.1c7.2 0 12.6 6.8 12.6 14s-4.5 14-13.5 14v-0.9h-99.3v63.2h98.6z m0 0" fill="#4B5256" p-id="3019"></path><path d="M664.3 129.1H359.9C195.8 129.1 73.4 252.6 73.4 405 22.2 441.2 0 497.4 0 562.5V820c0 32.3 7.2 87.9 42.3 87.9h84.5c27.8 0 50.6-31.7 60.1-54 4.4-15 9.6-42.2 22.8-40.6 132.9 15.9 217.9 23.6 308 22.9-57.3-56.3-92.8-134.6-92.8-221.2 0-73.7 25.7-141.3 68.6-194.5-147.1-2.9-304.3-9.7-304.3-18.3v-16.1c0-36.4 9.1-66.5 25.9-89.9 1.2-1.1 2.4-2.2 3.5-3.5 14.7-17.6 33.3-32.4 57.3-42.7 25.1-10.1 55.1-15.2 89-15.2h294.4c45.2 0 83.3 9.1 112.4 26.9 13.5 10.1 27.6 24 43 42.9 2.4 4 4.6 8.2 6.6 12.5 49.2 14.2 93.3 40.3 129.2 74.9-6.8-146.3-126.8-262.9-286.2-262.9zM278 686.5c16.1 28.9-11.1 54.5-22.3 54.5H126.1c-23.4 0-20.6-40-20.6-62.3v-79.5c0-11.1 16.1-18.9 17.8-17.2 69.6 5.5 123 49.4 154.7 104.5z m589.2 209.1c8.9 7.4 19.1 12.3 30.1 12.3h84.5c35 0 42.3-55.6 42.3-87.9v-92.9c-28.7 74.3-85.3 134.7-156.9 168.5z" fill="#4B5256" p-id="3020"></path></svg>