<?xml version="1.0" standalone="no"?><!DOCTYPE svg PUBLIC "-//W3C//DTD SVG 1.1//EN" "http://www.w3.org/Graphics/SVG/1.1/DTD/svg11.dtd"><svg t="1543289914553" class="icon" style="" viewBox="0 0 1024 1024" version="1.1" xmlns="http://www.w3.org/2000/svg" p-id="9210" xmlns:xlink="http://www.w3.org/1999/xlink" width="32" height="32"><defs><style type="text/css"></style></defs><path d="M68.514909 977.454545A21.783273 21.783273 0 0 1 46.545455 955.485091v-442.414546a21.876364 21.876364 0 0 1 13.824-20.386909l110.17309-44.218181a21.969455 21.969455 0 1 1 16.29091 40.773818l-96.349091 38.632727v395.124364l265.495272-106.496a22.341818 22.341818 0 0 1 16.430546 0l287.464727 115.386181 273.640727-109.847272V426.914909l-79.639272 31.883636a21.969455 21.969455 0 1 1-16.290909-40.727272l109.754181-44.125091a22.016 22.016 0 0 1 30.114909 20.386909v442.414545a21.876364 21.876364 0 0 1-13.824 20.386909l-295.563636 118.737455a22.341818 22.341818 0 0 1-16.477091 0l-287.464727-115.386182-287.464727 115.432727a22.202182 22.202182 0 0 1-8.145455 1.536z" fill="#4B5256" p-id="9211"></path><path d="M512.093091 791.272727a21.504 21.504 0 0 1-16.011636-7.261091c-0.605091-0.744727-65.954909-74.705455-130.327273-165.655272C277.504 493.707636 232.727273 397.498182 232.727273 332.334545c0-76.334545 29.044364-148.107636 81.780363-202.100363A274.245818 274.245818 0 0 1 512 46.545455c74.565818 0 144.756364 29.789091 197.492364 83.688727A287.138909 287.138909 0 0 1 791.272727 332.334545c0 65.163636-44.776727 161.373091-133.026909 286.021819-64.372364 90.949818-129.722182 164.910545-130.327273 165.701818a21.085091 21.085091 0 0 1-15.825454 7.214545z m0-700.695272c-130.234182 0-236.125091 108.404364-236.125091 241.664 0 54.877091 43.054545 144.616727 124.602182 259.863272a2184.052364 2184.052364 0 0 0 111.616 143.685818 2296.692364 2296.692364 0 0 0 111.569454-143.685818c81.454545-115.106909 124.602182-204.986182 124.602182-259.863272-0.139636-133.259636-106.030545-241.664-236.264727-241.664z" fill="#4B5256" p-id="9212"></path><path d="M488.727273 418.909091A116.503273 116.503273 0 0 1 372.363636 302.545455C372.363636 238.405818 424.587636 186.181818 488.727273 186.181818S605.090909 238.405818 605.090909 302.545455 552.866909 418.909091 488.727273 418.909091z m0-190.650182a74.286545 74.286545 0 1 0 0.046545 148.48 74.286545 74.286545 0 0 0-0.046545-148.48z" fill="#4B5256" p-id="9213"></path></svg>