<?xml version="1.0" standalone="no"?><!DOCTYPE svg PUBLIC "-//W3C//DTD SVG 1.1//EN" "http://www.w3.org/Graphics/SVG/1.1/DTD/svg11.dtd"><svg t="1543290810305" class="icon" style="" viewBox="0 0 1104 1024" version="1.1" xmlns="http://www.w3.org/2000/svg" p-id="17603" xmlns:xlink="http://www.w3.org/1999/xlink" width="34.5" height="32"><defs><style type="text/css"></style></defs><path d="M936.806669 1024H168.190182a83.083421 83.083421 0 0 1-83.020191-83.083421v-236.035319a31.930843 31.930843 0 1 1 63.861685 0v236.035319a18.968818 18.968818 0 0 0 18.968818 18.968818h768.806175a18.968818 18.968818 0 0 0 18.968817-18.968818v-236.035319a31.930843 31.930843 0 1 1 63.861686 0v236.035319a83.083421 83.083421 0 0 1-82.830503 83.083421z m-58.740105-671.6226h-651.262736a31.930843 31.930843 0 0 1 0-63.861685h651.262736a31.930843 31.930843 0 1 1 0 63.861685zM564.069404 602.892251c-66.074714 0-127.91306-36.989194-182.100648-75.87527C316.905712 571.720161 255.952578 594.356283 200.816548 594.356283a187.411917 187.411917 0 0 1-128.229206-49.508614 260.378635 260.378635 0 0 1-60.636987-83.14665C0.316147 436.788638-3.16147 392.97067 4.046681 361.861809a716.389009 716.389009 0 0 1 23.521334-71.259524c21.055387-52.164248 71.322754-152.698981 107.932572-222.251312C165.028713 11.823896 201.195925 0 226.108305 0h656.510775c25.291757 0 60.510528 12.013584 87.572708 69.552331 10.243161 21.687681 25.734362 53.112689 42.110775 86.371349 30.982402 63.229392 66.137944 134.362458 82.704044 173.62791a147.64063 147.64063 0 0 1 9.610868 52.733313v2.782093a136.069651 136.069651 0 0 1-12.645879 64.43075c-24.659463 49.002779-51.658413 84.600926-82.577586 108.754554a162.689225 162.689225 0 0 1-102.052238 36.040753c-53.175918 0-110.398518-23.711022-182.796172-76.254646a280.422353 280.422353 0 0 1-67.718678 58.676875 180.203767 180.203767 0 0 1-92.820747 26.176969zM382.158444 455.820685a31.614696 31.614696 0 0 1 18.968818 6.32294c50.583513 37.242112 108.438407 76.95017 162.878913 76.950169 45.272245 0 87.635937-27.568015 129.493794-84.348008a31.614696 31.614696 0 0 1 45.272245-6.322939c71.70213 55.768324 125.320655 81.755604 168.822476 81.755603 48.749861 0 90.48126-35.851065 127.596912-109.639765a72.334424 72.334424 0 0 0 5.753875-31.614696v-4.805434a92.188453 92.188453 0 0 0-4.615746-29.844273c-15.870577-37.558259-50.583513-108.059031-81.186539-170.276752-16.502871-33.511578-32.057302-65.126274-42.55338-87.256561-5.817104-12.266502-17.388083-32.816054-29.844273-32.816054H226.108305c-14.353072 0-27.631244 21.245076-34.27033 33.954183-35.724606 68.60389-84.853844 166.482989-104.834332 216.623897-9.863785 24.406545-19.601111 56.906453-20.865699 61.838345a120.135844 120.135844 0 0 0 3.604075 58.360729c13.46786 28.832603 53.175918 95.855758 131.0113 95.855757 46.852979 0 101.546403-23.015499 162.562766-68.350972a31.614696 31.614696 0 0 1 18.842359-6.386169z" p-id="17604" fill="#FF6A01"></path></svg>