<?xml version="1.0" standalone="no"?><!DOCTYPE svg PUBLIC "-//W3C//DTD SVG 1.1//EN" "http://www.w3.org/Graphics/SVG/1.1/DTD/svg11.dtd"><svg t="1543289616488" class="icon" style="" viewBox="0 0 1144 1024" version="1.1" xmlns="http://www.w3.org/2000/svg" p-id="3885" xmlns:xlink="http://www.w3.org/1999/xlink" width="35.75" height="32"><defs><style type="text/css"></style></defs><path d="M1071.090883 505.699426 1071.090883 366.216032C1071.090883 286.70771 1006.771662 221.500926 927.595749 220.036504L927.595749 149.336421C927.595749 70.262172 861.76984 5.564851 781.316839 5.564851L146.302323 5.564851C65.849324 5.564851 0.023415 70.262171 0.023415 149.336421 0.023415 150.053782 0.04055 150.766575 0.05083 151.481652L0.023415 151.463375 0.023415 859.686455C0.023415 940.104044 65.819624 1005.900252 146.237212 1005.900252L924.878229 1005.900252C1005.295816 1005.900252 1071.092024 940.104044 1071.092024 859.686455L1071.092024 719.810112C1110.773079 719.18642 1143.046349 686.554472 1143.046349 646.732914L1143.046349 578.776624C1143.045206 538.953926 1110.771938 506.323118 1071.090883 505.699426L1071.090883 505.699426ZM1069.938307 646.601549C1069.900612 646.647241 1069.852634 646.694076 1069.806944 646.732914L858.55999 646.732914C858.514299 646.695219 858.467464 646.647241 858.428626 646.601549L858.428626 578.907989C858.466323 578.862297 858.514299 578.815462 858.55999 578.776624L1069.805801 578.776624C1069.851493 578.814321 1069.899469 578.862297 1069.937164 578.907989L1069.938307 646.601549 1069.938307 646.601549ZM94.271915 99.925296C108.217056 86.218895 126.694825 78.670608 146.302323 78.670608L781.317982 78.670608C800.925482 78.670608 819.40325 86.218895 833.348391 99.925296 846.961123 113.305001 854.458008 130.852941 854.458008 149.336421L854.458008 220.001093 146.298896 220.001093C126.692539 219.99995 108.215914 212.451663 94.271915 198.746404 80.659182 185.366699 73.161156 167.81876 73.161156 149.335279 73.162298 130.852942 80.659182 113.306143 94.271915 99.925296L94.271915 99.925296ZM976.44715 911.256519C962.557981 925.145688 944.24356 932.794497 924.878229 932.794497L146.237212 932.794497C126.870738 932.794497 108.55746 925.145688 94.668291 911.256519 80.779123 897.36735 73.130314 879.052931 73.130314 859.687598L73.130313 273.692398C94.66829 286.015478 119.650289 293.095426 146.234927 293.107991L146.237212 293.109131 146.296611 293.109131 146.302323 293.109131 781.317982 293.109131 924.880513 293.109131C944.245846 293.110274 962.557981 300.759085 976.44715 314.647109 990.336319 328.536278 997.985128 346.850697 997.985128 366.21603L997.985128 505.669722 858.430912 505.669722C818.222118 505.669722 785.324013 538.567828 785.324013 578.776624L785.324013 646.732912C785.324013 686.941706 818.222118 719.839811 858.430912 719.839811L997.985128 719.839811 997.985128 859.687595C997.983985 879.052931 990.335176 897.36735 976.44715 911.256519L976.44715 911.256519Z" p-id="3886" fill="#4B5256"></path></svg>